<svg version="1.1" xmlns="http://www.w3.org/2000/svg" xmlns:xlink="http://www.w3.org/1999/xlink" width="255.27448" height="129.2238" viewBox="0,0,255.27448,129.2238"><g transform="translate(-0.03994,-0.3881)"><g data-paper-data="{&quot;isPaintingLayer&quot;:true}" fill="#000000" fill-rule="nonzero" stroke="none" stroke-width="0" stroke-linecap="butt" stroke-linejoin="miter" stroke-miterlimit="10" stroke-dasharray="" stroke-dashoffset="0" style="mix-blend-mode: normal"><path d=""/><path d="M255.31442,16.49132l-0.01591,0.56243c-0.08185,-0.11776 -0.16439,-0.23472 -0.24774,-0.35073z"/><g><g><path d="M64.99028,100.11021l-7.72739,-10.39268l74.19717,-59.57943l-0.46059,16.28782z"/><path d="M71.54257,94.96832l-10.10998,8.64358l-47.93548,-42.05499l-0.20717,-16.25626z"/></g><g><path d="M64.49028,126.11021l-7.72739,-10.39268l74.19717,-59.57943l-0.46059,16.28782z"/><path d="M71.04257,120.96832l-10.10998,8.64358l-36.43548,-33.55499l-0.20717,-14.25626z"/></g><g><path d="M65.49028,70.36021l-7.72739,-10.39268l74.19717,-59.57943l-0.46059,16.28782z"/><path d="M72.04257,65.21832l-10.10998,8.64358l-60.68548,-51.05499l-1.20717,-18.00626z"/></g><g data-paper-data="{&quot;index&quot;:null}"><path d=""/><path d="M58.26291,25.28247l7.72739,-10.39268l25.19798,20.49314c-2.82563,2.44349 -6.40259,5.43514 -9.64269,8.59525z"/><path d="M62.43259,11.38809l10.10998,8.64358l-29.72271,24.94043c-2.94482,-3.21732 -5.87678,-6.44732 -8.83643,-9.6496z"/><path d=""/></g><g data-paper-data="{&quot;index&quot;:null}"><path d=""/><path d="M61.50178,58.95019c5.28497,0.18818 11.57075,-3.85833 16.85706,-3.64129l12.07943,9.82402c-2.82563,2.44349 -6.40259,5.43514 -9.64269,8.59526c0,0 -20.83466,-14.83286 -19.2938,-14.77799z"/><path d="M42.06987,74.72211c-2.94482,-3.21732 -5.87679,-6.44732 -8.83643,-9.6496l12.85703,-10.81669c2.12298,0.00821 4.57451,0.04752 7.47225,0.14095c2.55746,0.08246 5.86515,3.91874 8.42304,4.00863c1.51772,0.05334 -19.91589,16.31671 -19.91589,16.31671z"/><path d=""/></g><g data-paper-data="{&quot;index&quot;:null}"><path d=""/><path d="M58.58896,87.09887l0.39785,-0.53508c7.40877,0.25112 14.81919,0.53086 22.23054,0.83515l13.1123,10.66404c-3.06724,2.65242 -6.95005,5.89989 -10.4672,9.33021z"/><path d="M41.82544,108.47211c-3.19662,-3.49242 -6.37929,-6.99861 -9.592,-10.4747l13.95639,-11.74158c2.30451,0.00891 4.96565,0.05158 8.11117,0.153c4.42336,0.14262 8.84735,0.29576 13.27184,0.45855z"/><path d=""/></g><g><path d="M64.31768,43.53498l-4.03156,-5.42211l10.01264,-8.2895c0.14642,0.01362 3.12486,3.23592 6.41386,3.63099z"/><path d=""/><path d="M67.73616,40.85234l-5.27462,4.50956l-17.69461,-14.88656c3.91899,0.36306 7.8442,0.67051 11.76727,0.9774z"/><path d=""/></g></g></g></g></svg>